HIERARCHY
ROOT Hips
{
	OFFSET 53.236801 -7.512225 93.565399
	CHANNELS 6 Xposition Yposition Zposition Xrotation Yrotation Zrotation
	JOINT spine
	{
		OFFSET 0.000000 -0.429886 7.475601
		CHANNELS 3 Xrotation Yrotation Zrotation
		JOINT spine1
		{
			OFFSET 0.000000 -0.000001 9.923012
			CHANNELS 3 Xrotation Yrotation Zrotation
			JOINT spine2
			{
				OFFSET 0.000000 -0.000001 9.508041
				CHANNELS 3 Xrotation Yrotation Zrotation
				JOINT Neck
				{
					OFFSET 0.000000 -1.163845 24.411095
					CHANNELS 3 Xrotation Yrotation Zrotation
					JOINT Head
					{
						OFFSET 0.000000 -0.000001 7.375229
						CHANNELS 3 Xrotation Yrotation Zrotation
						End Site
						{
							OFFSET 0.000000 5.887407 17.852203
						}
					}
				}
				JOINT RightShoulder
				{
					OFFSET -4.003559 0.557466 10.267906
					CHANNELS 3 Xrotation Yrotation Zrotation
					JOINT RightArm
					{
						OFFSET 0.000000 -0.000002 13.467300
						CHANNELS 3 Xrotation Yrotation Zrotation
						JOINT RightArmRoll
						{
							OFFSET 0.000000 -0.000001 6.798584
							CHANNELS 3 Xrotation Yrotation Zrotation
							JOINT RightForeArm
							{
								OFFSET 0.000000 -0.000003 19.801804
								CHANNELS 3 Xrotation Yrotation Zrotation
								JOINT RightForeArmRoll
								{
									OFFSET 0.000000 -0.000001 7.629044
									CHANNELS 3 Xrotation Yrotation Zrotation
									JOINT RightHand
									{
										OFFSET 0.000000 -0.000002 15.309799
										CHANNELS 3 Xrotation Yrotation Zrotation
										End Site
										{
											OFFSET 0.000000 0.000000 0.100006
										}
									}
								}
							}
						}
					}
				}
				JOINT LeftShoulder
				{
					OFFSET 4.003559 0.557466 10.267906
					CHANNELS 3 Xrotation Yrotation Zrotation
					JOINT LeftArm
					{
						OFFSET 0.000000 -0.000002 13.467300
						CHANNELS 3 Xrotation Yrotation Zrotation
						JOINT LeftArmRoll
						{
							OFFSET 0.000000 -0.000001 6.798569
							CHANNELS 3 Xrotation Yrotation Zrotation
							JOINT LeftForeArm
							{
								OFFSET 0.000000 -0.000003 19.801804
								CHANNELS 3 Xrotation Yrotation Zrotation
								JOINT LeftForeArmRoll
								{
									OFFSET 0.000000 -0.000001 7.629044
									CHANNELS 3 Xrotation Yrotation Zrotation
									JOINT LeftHand
									{
										OFFSET 0.000000 -0.000002 15.309799
										CHANNELS 3 Xrotation Yrotation Zrotation
										End Site
										{
											OFFSET 0.000000 0.000000 0.100006
										}
									}
								}
							}
						}
					}
				}
			}
		}
	}
	JOINT RightUpLeg
	{
		OFFSET -6.626091 1.019270 -1.215050
		CHANNELS 3 Xrotation Yrotation Zrotation
		JOINT RightUpLegRoll
		{
			OFFSET 0.000000 -0.000003 17.951698
			CHANNELS 3 Xrotation Yrotation Zrotation
			JOINT RightLeg
			{
				OFFSET 0.000000 0.000004 -22.230400
				CHANNELS 3 Xrotation Yrotation Zrotation
				JOINT RightLegRoll
				{
					OFFSET 0.000000 -0.000004 22.303200
					CHANNELS 3 Xrotation Yrotation Zrotation
					JOINT RightFoot
					{
						OFFSET 0.000000 -0.000003 18.563599
						CHANNELS 3 Xrotation Yrotation Zrotation
						JOINT RightToeBase
						{
							OFFSET 0.000000 -0.000002 15.518295
							CHANNELS 3 Xrotation Yrotation Zrotation
							End Site
							{
								OFFSET 0.006577 0.866261 7.515396
							}
						}
					}
				}
			}
		}
	}
	JOINT LeftUpLeg
	{
		OFFSET 6.626091 1.019270 -1.215050
		CHANNELS 3 Xrotation Yrotation Zrotation
		JOINT LeftUpLegRoll
		{
			OFFSET 0.000000 -0.000003 17.951797
			CHANNELS 3 Xrotation Yrotation Zrotation
			JOINT LeftLeg
			{
				OFFSET 0.000000 -0.000003 22.230293
				CHANNELS 3 Xrotation Yrotation Zrotation
				JOINT LeftLegRoll
				{
					OFFSET 0.000000 -0.000004 22.509308
					CHANNELS 3 Xrotation Yrotation Zrotation
					JOINT LeftFoot
					{
						OFFSET 0.000000 -0.000003 18.357498
						CHANNELS 3 Xrotation Yrotation Zrotation
						JOINT LeftToeBase
						{
							OFFSET 0.000000 -0.000003 15.518295
							CHANNELS 3 Xrotation Yrotation Zrotation
							End Site
							{
								OFFSET -0.029476 0.866262 7.515396
							}
						}
					}
				}
			}
		}
	}
}
MOTION
Frames: 8
Frame Time: 0.041667
53.695599 -10.559914 93.719391 -0.632277 1.031517 0.990237 -1.947764 -0.137576 0.164086 0.097814 -0.279323 0.327011 1.742890 -0.275436 0.330326 16.928424 -0.445544 0.319022 2.969282 -0.274690 0.362232 -15.116286 -33.082588 -17.091097 32.362420 -49.542477 75.178335 0.000004 0.000005 0.000021 1.807923 3.577354 -1.311827 -0.000002 -0.000006 -3.000021 -5.000164 -7.999909 0.000011 -15.257309 39.369016 17.492932 32.596016 48.401562 -71.206156 0.000006 -0.000007 0.000007 2.344039 -4.424050 0.575268 0.000009 -0.000007 3.000005 -5.000154 7.999969 -0.000002 -1.100720 177.069526 -2.900749 -179.999991 0.000005 -1.036996 172.266988 -1.597351 -0.499868 -0.000005 0.000002 0.130501 70.138291 6.828309 2.184998 25.456967 -7.355619 0.000002 -0.806798 178.858107 2.953630 -0.000005 0.000011 -1.006750 -6.661570 2.346300 0.324876 -0.000003 -0.000001 -0.090311 69.555785 -6.831920 -2.239994 25.456953 7.355613 -0.000011 
53.695999 -10.555513 93.720108 -0.631431 1.031827 0.991915 -1.947695 -0.137611 0.163748 0.097766 -0.278890 0.326759 1.742840 -0.275003 0.330067 16.927563 -0.462921 0.320152 2.968312 -0.269067 0.362808 -15.115914 -33.082534 -17.090532 32.342124 -49.535185 75.158152 0.000005 0.000006 0.000020 1.812448 3.575095 -1.311994 -0.000001 -0.000006 -3.000024 -5.000163 -7.999910 0.000004 -15.250489 39.363166 17.483655 32.591907 48.404205 -71.203950 0.000006 -0.000007 0.000004 2.339117 -4.425195 0.575097 0.000009 -0.000008 3.000001 -5.000154 7.999967 0.000003 -1.101533 177.069540 -2.900728 -179.999991 0.000005 -1.036995 172.270280 -1.598351 -0.499910 -0.000005 0.000002 0.130453 70.137013 6.828310 2.185079 25.456969 -7.355619 0.000001 -0.811348 178.858120 2.953440 -0.000004 0.000011 -1.006730 -6.665014 2.346720 0.324920 -0.000003 -0.000001 -0.090355 69.557793 -6.831900 -2.239965 25.456950 7.355613 -0.000010 
53.697800 -10.553114 93.721008 -0.630611 1.032127 0.993746 -1.947585 -0.137586 0.163267 0.097866 -0.278276 0.326340 1.742940 -0.274390 0.329639 16.926713 -0.480612 0.321578 2.967166 -0.263745 0.363721 -15.115378 -33.083592 -17.089898 32.321360 -49.526788 75.137784 0.000004 0.000006 0.000017 1.816491 3.572949 -1.312191 -0.000001 -0.000006 -3.000020 -5.000163 -7.999909 0.000006 -15.244453 39.356124 17.475321 32.590463 48.405909 -71.204995 0.000006 -0.000007 0.000006 2.331191 -4.427378 0.574876 0.000009 -0.000008 3.000003 -5.000154 7.999967 0.000007 -1.101833 177.069526 -2.900782 -179.999991 0.000005 -1.036995 172.274706 -1.599356 -0.499920 -0.000005 0.000002 0.130404 70.135210 6.828299 2.185188 25.456971 -7.355620 0.000001 -0.816872 178.857109 2.953284 -0.000004 0.000011 -1.006710 -6.669970 2.347163 0.324963 -0.000003 -0.000001 -0.090398 69.560436 -6.831907 -2.240004 25.456953 7.355615 -0.000011 
53.697800 -10.546814 93.720596 -0.629807 1.032417 0.995715 -1.947455 -0.137512 0.162667 0.098087 -0.277513 0.325778 1.743160 -0.273628 0.329067 16.925953 -0.498495 0.323250 2.965822 -0.258699 0.364913 -15.115009 -33.085607 -17.089384 32.300388 -49.517420 75.117328 0.000005 0.000006 0.000018 1.820115 3.570882 -1.312401 -0.000002 -0.000006 -3.000024 -5.000163 -7.999909 0.000007 -15.238811 39.347928 17.467599 32.591258 48.406797 -71.208684 0.000006 -0.000007 0.000003 2.320669 -4.430449 0.574633 0.000009 -0.000008 2.999999 -5.000154 7.999967 0.000002 -1.101703 177.069540 -2.900929 -179.999991 0.000005 -1.036995 172.280020 -1.599376 -0.499773 -0.000005 0.000002 0.130355 70.132888 6.828307 2.185230 25.456965 -7.355619 0.000002 -0.823214 178.857109 2.953121 -0.000005 0.000011 -1.006700 -6.676199 2.347640 0.325007 -0.000003 -0.000001 -0.090441 69.563715 -6.831907 -2.240002 25.456953 7.355615 -0.000011 
53.698601 -10.562814 93.722504 -0.629023 1.032717 0.997803 -1.947306 -0.137396 0.161970 0.098401 -0.276632 0.325098 1.743469 -0.272749 0.328374 16.925405 -0.516446 0.325117 2.964277 -0.253909 0.366330 -15.114539 -33.088425 -17.088836 32.279208 -49.507489 75.096803 0.000004 0.000006 0.000019 1.823378 3.568916 -1.312634 -0.000001 -0.000006 -3.000019 -5.000163 -7.999909 0.000005 -15.233772 39.338871 17.460550 32.593912 48.406988 -71.214721 0.000006 -0.000008 0.000007 2.307943 -4.434265 0.574355 0.000009 -0.000007 2.999998 -5.000154 7.999967 0.000001 -1.101224 177.069540 -2.901134 -179.999991 0.000005 -1.036995 172.286071 -1.599399 -0.499603 -0.000005 0.000002 0.130308 70.130122 6.828304 2.185300 25.456967 -7.355619 0.000001 -0.830229 178.857109 2.952961 -0.000005 0.000011 -1.006680 -6.683477 2.348131 0.325050 -0.000002 -0.000001 -0.090484 69.567403 -6.831890 -2.239971 25.456950 7.355613 -0.000011 
53.698898 -10.554214 93.724808 -0.628255 1.033028 0.999992 -1.947157 -0.137247 0.161198 0.098779 -0.275664 0.324324 1.743849 -0.271782 0.327586 16.924954 -0.534346 0.327124 2.962541 -0.249349 0.367915 -15.113916 -33.091754 -17.088182 32.258068 -49.496909 75.076504 0.000005 0.000006 0.000019 1.826350 3.567042 -1.312876 -0.000002 -0.000007 -3.000020 -5.000163 -7.999909 0.000003 -15.229005 39.329267 17.453937 32.597932 48.406541 -71.222419 0.000006 -0.000007 0.000006 2.293413 -4.438686 0.574052 0.000009 -0.000008 3.000001 -5.000154 7.999968 0.000001 -1.100463 177.069526 -2.901402 -179.999991 0.000005 -1.036996 172.292697 -1.600412 -0.499553 -0.000005 0.000002 0.130258 70.127062 6.828327 2.185292 25.456967 -7.355619 0.000002 -0.837765 178.857123 2.952801 -0.000005 0.000011 -1.006660 -6.691557 2.348649 0.325094 -0.000003 -0.000001 -0.090526 69.571521 -6.831856 -2.240013 25.456953 7.355615 -0.000011 
53.695000 -10.547517 93.724907 -0.627505 1.033338 1.002264 -1.947008 -0.137073 0.160373 0.099196 -0.274638 0.323482 1.744269 -0.270759 0.326728 16.924908 -0.552072 0.329224 2.960585 -0.245000 0.369614 -15.113364 -33.095477 -17.087552 32.236741 -49.486076 75.056163 0.000004 0.000006 0.000023 1.829091 3.565267 -1.313130 -0.000001 -0.000006 -3.000025 -5.000163 -7.999909 0.000001 -15.224562 39.319326 17.447711 32.603119 48.405411 -71.231578 0.000007 -0.000009 0.000004 2.277490 -4.443562 0.573734 0.000009 -0.000008 3.000000 -5.000154 7.999968 0.000002 -1.099513 177.069526 -2.901711 -179.999991 0.000005 -1.036996 172.299718 -1.600439 -0.499356 -0.000005 0.000002 0.130210 70.123763 6.828309 2.185491 25.456971 -7.355619 0.000002 -0.845669 178.856126 2.952664 -0.000005 0.000011 -1.006640 -6.700215 2.349174 0.325137 -0.000003 -0.000001 -0.090568 69.575749 -6.831860 -2.240053 25.456955 7.355614 -0.000011 
53.696301 -10.546814 93.723900 -0.626767 1.033678 1.004602 -1.946876 -0.136883 0.159520 0.099623 -0.273587 0.322593 1.744689 -0.269710 0.325825 16.925161 -0.569503 0.331362 2.958414 -0.240837 0.371368 -15.112729 -33.099397 -17.086850 32.215438 -49.475233 75.035953 0.000004 0.000006 0.000020 1.831663 3.563574 -1.313386 -0.000001 -0.000007 -3.000022 -5.000164 -7.999909 0.000004 -15.220327 39.309163 17.441726 32.608942 48.403976 -71.241571 0.000006 -0.000008 0.000008 2.260575 -4.448749 0.573409 0.000009 -0.000007 3.000004 -5.000154 7.999968 -0.000001 -1.098439 177.069540 -2.902066 -179.999991 0.000005 -1.036995 172.307013 -1.601468 -0.499288 -0.000005 0.000002 0.130160 70.120368 6.828322 2.185404 25.456971 -7.355619 0.000002 -0.853790 178.856140 2.952496 -0.000004 0.000011 -1.006620 -6.709206 2.349716 0.325181 -0.000002 -0.000001 -0.090610 69.580189 -6.831838 -2.240075 25.456952 7.355613 -0.000011 
